# Blender 4.5.1 LTS
# www.blender.org
mtllib parpu.mtl
o Cube
v 1.000000 2.001277 -1.000000
v 1.000000 0.001277 -1.000000
v 1.000000 2.001277 1.000000
v 1.000000 0.010597 1.000000
v -1.000000 2.001277 -1.000000
v -1.000000 0.001277 -1.000000
v -1.000000 2.001277 1.000000
v -1.000000 0.001277 1.000000
v 1.000000 3.112697 1.000000
v -1.000000 3.434980 0.677717
v 1.000000 3.112697 -1.000000
v -1.000000 3.434980 -0.677717
v 1.000000 4.979628 1.000000
v -1.000000 4.657345 0.677717
v 1.000000 4.979628 -1.000000
v -1.000000 4.657345 -0.677717
v -0.813573 3.490606 0.465283
v -0.813573 3.490606 -0.890152
v -0.813573 4.712971 0.465283
v -0.813573 4.712971 -0.890152
v -0.720785 3.112697 1.000000
v -1.000000 3.391912 0.720785
v -1.000000 3.112697 0.720785
v -1.197435 3.112697 1.197435
v -1.000000 3.391912 -0.720785
v -0.720785 3.112697 -1.000000
v -1.000000 2.833483 -1.000000
v -1.279215 3.112697 -1.000000
v -1.000000 3.112697 -0.720785
v -1.000000 4.700413 0.720785
v -0.720785 4.979628 1.000000
v -1.000000 4.979628 0.720785
v -0.720785 4.979628 -1.000000
v -1.000000 4.700413 -0.720785
v -1.000000 4.979628 -0.720785
v 1.000000 2.001277 2.752747
v -2.198868 2.001277 2.198868
v -2.483396 2.001277 2.165833
v 1.000000 3.112697 2.752747
v 1.000000 2.837977 3.031555
v -2.436526 2.837977 2.436526
v -2.198868 3.112697 2.198868
v -2.483396 3.112697 2.165833
v -2.967987 3.112697 -0.632871
v -2.658963 3.112697 -1.000000
v -3.031555 2.740106 -1.000000
v -2.903807 3.112697 -0.892470
v -2.958150 3.049991 -0.938213
v -2.922425 3.003568 -1.000000
v -3.012936 3.003568 -0.892470
v 1.000000 2.304300 3.031555
v 0.972112 2.275998 3.026726
v 1.000000 2.256133 3.011394
v 0.991832 2.284287 3.030141
v 0.995306 2.277418 3.027349
v 0.991832 2.270179 3.024235
v 1.000000 2.278469 3.025650
v -2.408638 2.275998 2.441355
v -2.436526 2.304300 2.436526
v -2.439940 2.255984 2.416806
v -2.421031 2.258086 2.421031
v -2.428358 2.284287 2.437941
v -2.431746 2.274847 2.432892
v -2.437526 2.278426 2.430750
v -2.432988 2.264890 2.426212
v -2.423820 2.270751 2.433402
v 1.000000 1.334610 -1.000000
v 1.000000 0.667944 -1.000000
v -1.000000 0.667944 1.000000
v -1.000000 1.334610 1.000000
v 1.000000 1.337717 1.000000
v 1.000000 0.674157 1.000000
v -1.000000 1.334610 -1.000000
v -1.000000 0.667944 -1.000000
v 1.360397 1.334610 -1.360041
v 1.359863 0.667944 -1.360575
v -1.360575 0.667944 1.359863
v -1.360041 1.334610 1.360397
v 1.360219 1.337717 1.360219
v 1.360219 0.674157 1.360219
v -1.360219 1.334610 -1.360219
v -1.360219 0.667944 -1.360219
v -2.626224 2.001277 -1.000000
v -2.962401 2.001277 -0.600612
v -3.031555 2.406608 -1.000000
v -2.892581 2.001277 -0.883022
v -2.951700 2.069494 -0.932784
v -3.011300 2.119996 -0.883022
v -2.912836 2.119996 -1.000000
vn -0.0000 -0.0000 1.0000
vn -1.0000 -0.0000 -0.0000
vn 0.0023 -1.0000 0.0023
vn 1.0000 -0.0000 -0.0000
vn -0.0000 -0.0000 -1.0000
vn -0.7516 -0.0000 -0.6596
vn 0.2859 -0.9583 -0.0000
vn 0.7516 -0.0000 0.6596
vn -0.2859 0.9583 -0.0000
vn -0.3574 0.8629 0.3574
vn -0.2673 0.5345 -0.8018
vn -0.7071 -0.0000 0.7071
vn -0.7071 -0.0000 -0.7071
vn -0.0000 1.0000 -0.0000
vn -0.0832 0.6922 0.7169
vn -0.1206 0.7071 0.6967
vn -0.0000 -1.0000 -0.0000
vn -0.6973 0.6973 -0.1657
vn -0.2822 0.6973 -0.6588
vn -0.7308 0.2958 -0.6152
vn 0.3556 -0.2047 0.9120
vn -0.0011 -0.3861 0.9225
vn 0.3744 -0.5019 0.7797
vn -0.2991 -0.3920 0.8700
vn -0.5289 -0.1880 0.8276
vn -0.5058 -0.4219 0.7524
vn -0.1760 -0.6411 0.7470
vn -0.1206 -0.7071 0.6967
vn -0.1706 -0.0000 0.9853
vn -0.0832 -0.6922 0.7169
vn -0.0000 -1.0000 0.0026
vn 0.0026 -1.0000 -0.0000
vn -0.0000 0.0004 -1.0000
vn 1.0000 -0.0004 -0.0000
vn -1.0000 0.0004 -0.0000
vn -0.0000 -0.0004 1.0000
vn -0.0013 1.0000 -0.0000
vn -0.0000 1.0000 -0.0013
vn -0.2822 -0.6973 -0.6588
vn -0.6973 -0.6973 -0.1657
vn -0.7308 -0.2958 -0.6152
vn -0.9853 -0.0000 0.1706
vt 0.541667 0.750000
vt 0.625000 0.750000
vt 0.625000 1.000000
vt 0.541667 1.000000
vt 0.541667 0.000000
vt 0.625000 0.000000
vt 0.625000 0.250000
vt 0.541667 0.250000
vt 0.125000 0.500000
vt 0.375000 0.500000
vt 0.375000 0.750000
vt 0.125000 0.750000
vt 0.541667 0.500000
vt 0.625000 0.500000
vt 0.875000 0.709715
vt 0.875000 0.709715
vt 0.875000 0.540285
vt 0.875000 0.540285
vt 0.840098 0.750000
vt 0.875000 0.718135
vt 0.875000 0.715098
vt 0.875000 0.750000
vt 0.625000 0.283983
vt 0.875000 0.715098
vt 0.840344 0.750000
vt 0.875000 0.715098
vt 0.625000 0.284902
vt 0.875000 0.534902
vt 0.875000 0.534902
vt 0.844908 0.500000
vt 0.875000 0.500000
vt 0.875000 0.534902
vt 0.625000 0.000000
vt 0.625000 0.013879
vt 0.625000 0.019692
vt 0.625000 0.750598
vt 0.625000 0.986121
vt 0.625000 0.750000
vt 0.625000 0.750000
vt 0.875000 0.526708
vt 0.875000 0.508724
vt 0.875000 0.505262
vt 0.875000 0.507823
vt 0.625000 0.250000
vt 0.625000 0.250000
vt 0.625000 0.242177
vt 0.875000 0.730308
vt 0.625000 0.750594
vt 0.625000 0.750151
vt 0.625000 0.750001
vt 0.625000 0.752029
vt 0.625000 0.750605
vt 0.625000 0.997971
vt 0.625000 0.999406
vt 0.625000 0.999836
vt 0.625000 0.999400
vt 0.625000 0.000420
vt 0.625000 0.000059
vt 0.625000 -0.000200
vt 0.625000 0.001435
vt 0.625000 0.000420
vt 0.625000 1.000000
vt 0.625000 1.000439
vt 0.625000 1.000000
vt 0.625000 0.019692
vt 0.375000 0.250000
vt 0.458333 0.250000
vt 0.458333 0.500000
vt 0.458333 0.750000
vt 0.375000 0.000000
vt 0.458333 0.000000
vt 0.458333 1.000000
vt 0.375000 1.000000
vt 0.625000 0.250000
vt 0.625000 0.240489
vt 0.625000 0.248062
vt 0.625000 0.220945
vt 0.625000 0.241490
vt 0.625000 0.250000
vt 0.625000 0.223292
s 0
usemtl Material
f 71/1/1 3/2/1 7/3/1 70/4/1
f 70/5/2 7/6/2 5/7/2 73/8/2
f 6/9/3 2/10/3 4/11/3 8/12/3
f 67/13/4 1/14/4 3/2/4 71/1/4
f 73/8/5 5/7/5 1/14/5 67/13/5
f 3/2/4 1/14/4 11/14/4 9/2/4
f 9/2/4 11/14/4 15/14/4 13/2/4
f 10/15/6 14/16/6 19/16/6 17/15/6
f 18/17/2 17/15/2 19/16/2 20/18/2
f 14/16/7 16/18/7 20/18/7 19/16/7
f 16/18/8 12/17/8 18/17/8 20/18/8
f 12/17/9 10/15/9 17/15/9 18/17/9
f 21/19/10 22/20/10 23/21/10 24/22/10
f 25/7/11 26/23/11 27/7/11 28/7/11 29/7/11
f 30/24/12 31/25/12 32/26/12
f 33/27/13 34/7/13 35/7/13
f 25/28/13 34/29/13 33/30/13 26/31/13
f 21/19/12 31/25/12 30/24/12 22/20/12
f 21/19/1 9/2/1 13/2/1 31/25/1
f 14/16/2 10/15/2 22/20/2 30/24/2
f 10/15/2 12/17/2 25/28/2 29/32/2 23/21/2 22/20/2
f 1/14/5 5/7/5 27/7/5 26/23/5 11/14/5
f 11/14/5 26/23/5 33/27/5 15/14/5
f 12/17/2 16/18/2 34/29/2 25/28/2
f 15/14/14 33/30/14 35/29/14 32/26/14 31/25/14 13/2/14
f 16/18/2 14/16/2 30/24/2 32/26/2 35/29/2 34/29/2
f 41/33/15 42/34/15 43/35/15
f 39/36/16 42/37/16 41/3/16 40/38/16
f 7/3/17 3/2/17 36/39/17 37/3/17
f 9/2/14 21/19/14 24/22/14 42/22/14 39/36/14
f 44/40/18 47/41/18 48/42/18 50/43/18
f 45/44/19 49/45/19 48/7/19 47/7/19
f 46/7/20 50/46/20 48/7/20 49/45/20
f 24/22/14 23/21/14 29/32/14 28/31/14 45/31/14 47/41/14 44/40/14 43/47/14 42/22/14
f 51/2/21 54/48/21 55/49/21 57/50/21
f 52/51/22 56/52/22 55/49/22 54/48/22
f 53/2/23 57/50/23 55/49/23 56/52/23
f 58/53/24 62/54/24 63/55/24 66/56/24
f 59/33/25 64/57/25 63/58/25 62/59/25
f 60/60/26 65/61/26 63/58/26 64/57/26
f 61/62/27 66/56/27 63/55/27 65/63/27
f 3/2/4 9/2/4 39/36/4 40/38/4 51/2/4 57/50/4 53/2/4 36/39/4
f 53/2/28 56/52/28 52/51/28 58/53/28 66/56/28 61/62/28 37/3/28 36/39/28
f 59/64/29 62/54/29 58/53/29 52/51/29 54/48/29 51/2/29 40/38/29 41/3/29
f 37/6/30 61/33/30 65/61/30 60/60/30 38/65/30
f 6/66/5 74/67/5 68/68/5 2/10/5
f 68/68/17 74/67/17 82/67/17 76/68/17
f 2/10/4 68/68/4 72/69/4 4/11/4
f 72/69/31 68/68/31 76/68/31 80/69/31
f 8/70/2 69/71/2 74/67/2 6/66/2
f 74/67/17 69/71/17 77/71/17 82/67/17
f 4/11/1 72/69/1 69/72/1 8/73/1
f 69/72/32 72/69/32 80/69/32 77/72/32
f 82/67/33 81/8/33 75/13/33 76/68/33
f 76/68/34 75/13/34 79/1/34 80/69/34
f 77/71/35 78/5/35 81/8/35 82/67/35
f 80/69/36 79/1/36 78/4/36 77/72/36
f 71/1/37 70/4/37 78/4/37 79/1/37
f 70/5/14 73/8/14 81/8/14 78/5/14
f 67/13/38 71/1/38 79/1/38 75/13/38
f 73/8/14 67/13/14 75/13/14 81/8/14
f 83/74/39 86/75/39 87/76/39 89/74/39
f 84/77/40 88/78/40 87/76/40 86/75/40
f 85/79/41 89/74/41 87/76/41 88/78/41
f 28/7/5 27/7/5 5/7/5 83/74/5 89/74/5 85/79/5 46/7/5 49/45/5 45/44/5
f 5/7/17 7/6/17 37/6/17 38/65/17 84/77/17 86/75/17 83/74/17
f 85/79/42 88/78/42 84/77/42 38/65/42 60/60/42 64/57/42 59/33/42 41/33/42 43/35/42 44/80/42 50/46/42 46/7/42
